<?xml version="1.0" encoding="UTF-8" standalone="no"?>
<!DOCTYPE svg PUBLIC "-//W3C//DTD SVG 20010904//EN"
"http://www.w3.org/TR/2001/REC-SVG-20010904/DTD/svg10.dtd">
<!-- Created with Inkscape (http://www.inkscape.org/) -->
<svg
   width="396.025"
   height="268.041"
   xmlns="http://www.w3.org/2000/svg"
   xmlns:sodipodi="http://sodipodi.sourceforge.net/DTD/sodipodi-0.dtd"
   xmlns:inkscape="http://www.inkscape.org/namespaces/inkscape"
   xmlns:xlink="http://www.w3.org/1999/xlink"
   id="svg574"
   sodipodi:version="0.32"
   inkscape:version="0.37"
   sodipodi:docname="logo.svg"
   sodipodi:docbase="/opt/backup/ftp/CodeFactory/people/daniel/emacs_logo">
  <sodipodi:namedview
     id="base"
     pagecolor="#ffffff"
     bordercolor="#666666"
     borderopacity="1.0"
     inkscape:pageopacity="0.0"
     inkscape:pageshadow="2"
     inkscape:zoom="1.73663344"
     inkscape:cx="151.164004"
     inkscape:cy="96.2916312"
     inkscape:window-width="640"
     inkscape:window-height="497"
     inkscape:window-x="284"
     inkscape:window-y="305" />
  <defs
     id="defs575">
    <marker
       id="ArrowEnd"
       viewBox="0 0 10 10"
       refX="0"
       refY="5"
       markerUnits="strokeWidth"
       markerWidth="4"
       markerHeight="3"
       orient="auto">
      <path
         d="M 0 0 L 10 5 L 0 10 z"
         id="path577" />
    </marker>
    <marker
       id="ArrowStart"
       viewBox="0 0 10 10"
       refX="10"
       refY="5"
       markerUnits="strokeWidth"
       markerWidth="4"
       markerHeight="3"
       orient="auto">
      <path
         d="M 10 0 L 0 5 L 10 10 z"
         id="path579" />
    </marker>
  </defs>
  <path
     style="font-size:12;fill:#aaaaaa;stroke:#aaaaaa;stroke-width:8.6914;stroke-linejoin:round;"
     d="M 209.632 168.775C 199.748 178.368 189.517 186.201 179.464 192.11C 179.982 191.697 180.267 191.46 180.267 191.46C 147.134 207.881 157.623 169.374 157.623 160.259C 157.623 151.146 157.337 144.26 156.765 139.595C 164.222 134.949 170.828 132.617 176.576 132.617C 182.312 132.617 188.344 134.476 194.675 138.198L 209.314 126.229C 198.967 118.778 188.494 115.048 177.871 115.048C 167.247 115.048 157.049 117.842 147.288 123.435C 136.943 114.524 131.78 106.679 131.78 99.8893C 131.78 93.0993 135.222 88.0733 142.115 84.8153C 149.008 81.5563 158.198 79.8003 169.689 79.5353C 181.174 79.2683 193.803 85.7153 207.593 98.8853L 222.24 86.9163C 203.28 70.5563 185.615 62.3683 169.256 62.3683C 152.885 62.3683 138.959 65.5313 127.476 71.8503C 115.982 78.1703 110.246 87.1823 110.246 98.8853C 110.246 110.599 114.548 120.176 123.164 127.626C 131.78 135.078 136.09 143.36 136.09 152.474C 136.09 161.205 129.973 190.445 138.939 201.368C 138.841 201.369 138.74 203.256 138.643 203.256C 117.968 203.256 101.165 199.52 88.2457 188.27C 75.3208 177.03 66.0407 158.3 65.3447 140.035C 63.8887 101.832 86.9617 72.0273 100.75 60.3153L 87.3027 45.5503C 69.4987 58.1893 44.0918 97.8443 45.6158 140.073C 46.5358 165.598 55.7937 185.75 72.7388 200.447C 89.6808 215.145 111.935 222.49 139.503 222.49C 167.069 222.49 197.565 208.521 223.418 181.512L 209.632 168.775z"
     id="path581" />
  <g
     id="g582"
     style="font-size:12;">
    <path
       style="stroke:#ffffff; stroke-width:6.0137; fill:#000000"
       d="M 72.2787 127.79C 74.8717 122.213 80.9328 118.774 86.0018 118.774C 91.0708 118.774 95.7957 122.213 96.1158 127.79L 72.2787 127.79zM 97.1888 157.256C 100.64 157.256 103.752 155.676 104.42 152.237C 105.087 148.798 102.59 147.217 99.1377 147.217L 85.2238 147.217C 76.1637 147.217 68.9577 144.893 69.7917 136.156L 102.796 136.156C 107.326 136.156 108.533 133.832 109.146 130.672C 111.258 119.796 105.819 109.478 87.8067 109.478C 71.3037 109.478 58.6217 120.354 55.9147 134.297C 53.2258 148.147 62.2428 157.256 81.4417 157.256L 97.1888 157.256z"
       id="path583" />
    <path
       style="stroke:#ffffff; stroke-width:6.0137; fill:#000000"
       d="M 122.354 114.869C 122.931 111.895 125.234 109.478 129.225 109.478C 133.216 109.478 134.58 111.895 134.074 114.498C 138.463 111.337 143.462 109.478 148.747 109.478C 155.003 109.478 158.561 111.151 162.494 116.449C 167.854 112.732 174.094 109.478 181.213 109.478C 192.861 109.478 199.004 116.729 197.163 126.21L 192.254 151.493C 191.603 154.839 189.031 157.535 184.609 157.535C 180.186 157.535 178.66 154.839 179.31 151.493L 183.317 130.858C 184.563 124.443 184.009 119.517 176.783 119.517C 171.066 119.517 165.598 123.793 163.901 132.53L 160.219 151.493C 159.57 154.839 156.997 157.535 152.574 157.535C 148.152 157.535 146.626 154.839 147.276 151.493L 151.283 130.858C 152.529 124.443 151.975 119.517 144.749 119.517C 139.032 119.517 133.564 123.793 131.867 132.53L 128.185 151.493C 127.535 154.839 124.963 157.535 120.54 157.535C 116.118 157.535 114.593 154.839 115.242 151.493L 122.354 114.869z"
       id="path584" />
    <path
       style="stroke:#ffffff; stroke-width:6.0137; fill:#000000"
       d="M 239.27 140.432C 238.241 145.73 231.372 148.89 225.332 148.89C 218.86 148.89 215.896 146.381 216.636 142.57C 217.484 138.201 225.432 134.483 240.426 134.483L 239.27 140.432zM 254.399 125.838C 256.62 114.405 250.781 110.036 239.347 110.036L 220.472 110.036C 216.913 110.036 213.802 111.616 213.135 115.055C 212.467 118.495 214.964 120.075 218.523 120.075L 238.262 120.075C 241.174 120.075 242.323 121.376 241.402 126.117L 236.872 126.117C 224.253 126.117 206.183 129.742 203.585 143.128C 201.852 152.051 208.715 157.814 219.608 157.814C 227.051 157.814 233.2 156.141 237.373 152.423C 237.011 155.955 238.267 157.814 241.827 157.814C 246.573 157.814 248.642 155.49 249.382 151.679L 254.399 125.838z"
       id="path585" />
    <path
       style="stroke:#ffffff; stroke-width:6.0137; fill:#000000"
       d="M 306.362 110.036C 310.03 110.036 312.617 111.709 311.913 115.335C 311.209 118.959 307.972 120.633 304.304 120.633L 288.018 120.633C 280.468 120.633 275.467 125.28 274.528 130.114C 272.362 141.268 281.778 146.66 296.231 146.66C 305.183 146.66 307.105 147.868 306.294 152.051C 305.59 155.676 302.478 157.256 292.34 157.256C 266.238 157.256 257.801 142.941 260.237 130.392C 262.385 119.331 273.25 110.036 287.487 110.036L 306.362 110.036z"
       id="path586" />
    <path
       style="stroke:#ffffff; stroke-width:6.0137; fill:#000000"
       d="M 318.778 157.256C 315.22 157.256 312.721 155.676 313.389 152.237C 314.057 148.798 317.169 147.217 320.728 147.217L 340.142 147.217C 345.319 147.217 349.617 146.195 350.592 141.175C 352.451 131.601 316.508 141.733 320.28 122.306C 321.923 113.847 329.134 110.036 340.999 110.036L 359.119 110.036C 362.57 110.036 365.067 111.616 364.4 115.055C 363.732 118.495 360.621 120.075 357.17 120.075L 338.294 120.075C 336.352 120.075 333.638 120.168 333.205 122.399C 331.96 128.812 367.325 121.655 363.516 141.268C 361.333 152.515 351.351 157.256 339.164 157.256L 318.778 157.256z"
       id="path587" />
    <path
       style="stroke:none; fill:#ff7512"
       d="M 72.2787 127.79C 74.8717 122.213 80.9328 118.774 86.0018 118.774C 91.0708 118.774 95.7957 122.213 96.1158 127.79L 72.2787 127.79zM 97.1888 157.256C 100.64 157.256 103.752 155.676 104.42 152.237C 105.087 148.798 102.59 147.217 99.1377 147.217L 85.2238 147.217C 76.1637 147.217 68.9577 144.893 69.7917 136.156L 102.796 136.156C 107.326 136.156 108.533 133.832 109.146 130.672C 111.258 119.796 105.819 109.478 87.8067 109.478C 71.3037 109.478 58.6217 120.354 55.9147 134.297C 53.2258 148.147 62.2428 157.256 81.4417 157.256L 97.1888 157.256z"
       id="path588" />
    <path
       style="stroke:none; fill:#ff7512"
       d="M 122.354 114.869C 122.931 111.895 125.234 109.478 129.225 109.478C 133.216 109.478 134.58 111.895 134.074 114.498C 138.463 111.337 143.462 109.478 148.747 109.478C 155.003 109.478 158.561 111.151 162.494 116.449C 167.854 112.732 174.094 109.478 181.213 109.478C 192.861 109.478 199.004 116.729 197.163 126.21L 192.254 151.493C 191.603 154.839 189.031 157.535 184.609 157.535C 180.186 157.535 178.66 154.839 179.31 151.493L 183.317 130.858C 184.563 124.443 184.009 119.517 176.783 119.517C 171.066 119.517 165.598 123.793 163.901 132.53L 160.219 151.493C 159.57 154.839 156.997 157.535 152.574 157.535C 148.152 157.535 146.626 154.839 147.276 151.493L 151.283 130.858C 152.529 124.443 151.975 119.517 144.749 119.517C 139.032 119.517 133.564 123.793 131.867 132.53L 128.185 151.493C 127.535 154.839 124.963 157.535 120.54 157.535C 116.118 157.535 114.593 154.839 115.242 151.493L 122.354 114.869z"
       id="path589" />
    <path
       style="stroke:none; fill:#ff7512"
       d="M 239.27 140.432C 238.241 145.73 231.372 148.89 225.332 148.89C 218.86 148.89 215.896 146.381 216.636 142.57C 217.484 138.201 225.432 134.483 240.426 134.483L 239.27 140.432zM 254.399 125.838C 256.62 114.405 250.781 110.036 239.347 110.036L 220.472 110.036C 216.913 110.036 213.802 111.616 213.135 115.055C 212.467 118.495 214.964 120.075 218.523 120.075L 238.262 120.075C 241.174 120.075 242.323 121.376 241.402 126.117L 236.872 126.117C 224.253 126.117 206.183 129.742 203.585 143.128C 201.852 152.051 208.715 157.814 219.608 157.814C 227.051 157.814 233.2 156.141 237.373 152.423C 237.011 155.955 238.267 157.814 241.827 157.814C 246.573 157.814 248.642 155.49 249.382 151.679L 254.399 125.838z"
       id="path590" />
    <path
       style="stroke:none; fill:#ff7512"
       d="M 306.362 110.036C 310.03 110.036 312.617 111.709 311.913 115.335C 311.209 118.959 307.972 120.633 304.304 120.633L 288.018 120.633C 280.468 120.633 275.467 125.28 274.528 130.114C 272.362 141.268 281.778 146.66 296.231 146.66C 305.183 146.66 307.105 147.868 306.294 152.051C 305.59 155.676 302.478 157.256 292.34 157.256C 266.238 157.256 257.801 142.941 260.237 130.392C 262.385 119.331 273.25 110.036 287.487 110.036L 306.362 110.036z"
       id="path591" />
    <path
       style="stroke:none; fill:#ff7512"
       d="M 318.778 157.256C 315.22 157.256 312.721 155.676 313.389 152.237C 314.057 148.798 317.169 147.217 320.728 147.217L 340.142 147.217C 345.319 147.217 349.617 146.195 350.592 141.175C 352.451 131.601 316.508 141.733 320.28 122.306C 321.923 113.847 329.134 110.036 340.999 110.036L 359.119 110.036C 362.57 110.036 365.067 111.616 364.4 115.055C 363.732 118.495 360.621 120.075 357.17 120.075L 338.294 120.075C 336.352 120.075 333.638 120.168 333.205 122.399C 331.96 128.812 367.325 121.655 363.516 141.268C 361.333 152.515 351.351 157.256 339.164 157.256L 318.778 157.256z"
       id="path592" />
  </g>
</svg>
